<?xml version="1.0" encoding="utf-8"?>
<!-- Generator: Adobe Illustrator 25.4.1, SVG Export Plug-In . SVG Version: 6.00 Build 0)  -->
<svg version="1.1" id="Layer_1" xmlns="http://www.w3.org/2000/svg" xmlns:xlink="http://www.w3.org/1999/xlink" x="0px"
	y="0px" viewBox="0 0 1125 2436" enable-background="new 0 0 1125 2436" xml:space="preserve">
	<g>
		<rect x="-0.5" y="-0.5" width="1125" height="132" />
		<rect y="132" fill="#FFFFFF" width="1125" height="132" />
		<rect x="-0.5" y="264.5" width="1125" height="132" />
		<rect y="397" fill="#FFFFFF" width="1125" height="132" />
		<rect x="-0.5" y="529.5" width="1125" height="132" />
		<rect y="662" fill="#FFFFFF" width="1125" height="132" />
		<rect x="-0.5" y="794.5" width="1125" height="132" />
		<rect y="927" fill="#FFFFFF" width="1125" height="132" />
		<rect x="-0.5" y="1059.5" width="1125" height="132" />
		<rect y="1192" fill="#FFFFFF" width="1125" height="132" />
		<rect x="-0.5" y="1324.5" width="1125" height="132" />
		<rect y="1457" fill="#FFFFFF" width="1125" height="132" />
		<rect x="-0.5" y="1589.5" width="1125" height="132" />
		<rect y="1722" fill="#FFFFFF" width="1125" height="132" />
		<rect x="-0.5" y="1854.5" width="1125" height="132" />
		<rect y="1987" fill="#FFFFFF" width="1125" height="132" />
		<rect x="-0.5" y="2119.5" width="1125" height="132" />
		<rect y="2252" fill="#FFFFFF" width="1125" height="132" />
	</g>
	<text style="mix-blend-mode:luminosity;" transform="matrix(1 0 0 1 61.7734 212.1045)" fill="#FFFFFF"
		font-family="'StolzlDisplay-Medium'" font-size="244.8314px">YAYTSO</text>
	<path style="mix-blend-mode:luminosity;" fill="#FFFFFF"
		d="M1037,637c0,146.4-106.9,224-195,224s-201-53.6-201-200s112.9-289,201-289S1037,490.6,1037,637z" />
</svg>