<?xml version="1.0" encoding="utf-8"?>
<!-- Generator: Adobe Illustrator 25.4.1, SVG Export Plug-In . SVG Version: 6.00 Build 0)  -->
<svg version="1.1" id="Layer_1" xmlns="http://www.w3.org/2000/svg" xmlns:xlink="http://www.w3.org/1999/xlink" x="0px" y="0px"
	 viewBox="0 0 35 35" enable-background="new 0 0 35 35" xml:space="preserve">
<circle fill="#66CCF5" cx="17.4" cy="17.4" r="17.4"/>
<g id="Layer_2_00000089555259716551776550000004117554836238440076_">
	<g id="eggvg">
		<path fill="#45FF7F" stroke="#9C17FF" stroke-width="0.1953" stroke-miterlimit="1.7937" d="M7.9,11.9c0-0.1,0.1-0.3,0.1-0.4
			c0.2-0.3,0.5-0.5,0.8-0.5c0.8-0.1,11.8-0.6,11.8-0.6l6.3,2.3c0,0,1.3,0.7,1.4,1.3s0.4,2,0.4,2s0.8-0.1,0.8,0.1v0.8
			c0,0,0.8,0.1,0.8,0.4c-0.1,0.3-0.5,0.5-0.8,0.6c-0.3,0.1-0.4,0.4-0.4,0.7c0,0.3-0.5,0.4-0.7,0.4c-0.2,0.8-0.6,1.4-1.2,2
			c0,0,0.1,1-0.3,1.3c-1,0.5-2.1,0.6-3.2,0.3c0,0-0.8,0-0.8-0.3c-0.1-0.3,0.1-0.2-0.1-0.3c-0.3-0.1-0.7-0.1-1,0
			c-0.3,0.1-0.6,0.1-0.9,0.1c-0.1,0.3-0.3,0.6-0.5,0.9c-0.5,0.5-1.1,0.8-1.8,0.8c-0.6,0-1.2-0.1-1.7-0.2c0,0-0.5,0.2-0.7-0.2
			c-0.2-0.3-0.3-0.6-0.4-0.9c0,0-1.9,0-2.1,0.3c-0.1,0.3,0,0.6-0.3,0.9c-0.6,0.6-1.3,0.9-2.2,1c-1,0-2.3-0.3-2.4-0.8
			c0-0.5-0.1-0.9-0.3-1.3c-0.1-0.1,0-0.2-0.4-0.3C8,22,7.1,21.9,7,21.6c0-0.4-0.1-0.8-0.2-1.3c-0.1-0.2-1.5-1.8-1.3-2.7
			c0,0-0.7-0.4-0.7-0.8c0-0.4,0.1-1.3,0.6-0.7c0,0,0.6-2.8,1.1-3.2C6.9,12.4,7.4,12.2,7.9,11.9z"/>
		<path fill="#45FF7F" stroke="#B55CFF" stroke-width="0.1953" stroke-miterlimit="1.7937" d="M8.1,11.5c1.4,0.8,2.7,1.6,4,2.6
			c0.4,0.5-0.5,5.4-0.5,5.4l1.2,0.2c-1.1-0.3-2.3-0.4-3.4-0.6c-1.5-0.1-1.6,0.5-1.6,0.5l-3.1-2.8l3.2,2.8c-0.2-0.4,3-0.4,3.8-0.1
			c0.5,0.2,1,0.1,1.5,0.3c0.5,0.3,3.9,1.6,5.8,1.7c1.9-0.1,3.8-0.4,5.6-1c0.6-0.3,3.3-2.5,3.6-2.5c0.6-0.1,1.1-0.3,1.7-0.4l-2.3,0.7
			c0-0.7-0.7-5.3-0.7-5.3l-14.9,1.1"/>
		<path fill="#B873FF" stroke="#C4C4C4" stroke-width="0.1953" stroke-miterlimit="1.7937" d="M18.7,16.9c0.1,0.2,0.3,0.4,0.6,0.3
			c0.4,0,2.3,0,2.4-0.2c0.2-0.2,0.5-0.6,0.3-1c-0.2-0.3-0.8-1.6-1.1-1.7c-0.6-0.3-1.3-0.3-1.8,0.1c0,0,0,0.6-0.2,0.8
			c-0.2,0.1-0.5,0-0.4,0.4C18.5,16,18.7,16.9,18.7,16.9z"/>
	</g>
</g>
</svg>
