<svg id="eggvg" xmlns="http://www.w3.org/2000/svg" viewBox="0 0 216.03 216.03" width="35" height="35">
    <path
        d="M35.61,64.46a7.77,7.77,0,0,1,1-3,7.32,7.32,0,0,1,6-3.53c6.57-.63,89.44-4.66,89.44-4.66L179.52,70.4s9.75,5.51,10.81,9.75,3,15,3,15,5.73-.91,5.73.92v5.65s6.14.85,5.72,2.76-3.82,3.6-5.72,4.24-3.18,2.75-3.39,5.08-3.61,3-5.3,3c0,0-2.76,11-8.9,15.05,0,0,.42,7.42-2.34,9.75s-14,5.08-24.16,2.12c0,0-5.72.21-6.14-2.12s1.06-1.82-.64-2.66-4.87-.64-7.42,0a63.63,63.63,0,0,1-7,1.06,23.5,23.5,0,0,1-3.82,6.47,18.53,18.53,0,0,1-13.48,5.94,44.74,44.74,0,0,1-13-1.7S100,152,98.56,149.45a50.55,50.55,0,0,1-3-6.57s-14.62-.21-15.68,2.33.21,4.48-2.55,7.22-8.9,7.62-16.32,7.41-17.16-1.91-17.8-5.94-1.27-9.32-2.12-10,0-1.7-2.76-2.12-9.32-1.7-10-4.24-.63-7.84-1.69-9.54-11.66-13.93-10.18-20.42c0,0-5.29-3.31-5.29-5.86s.42-9.6,4.45-5.65c0,0,4.87-21.26,8.69-24.87S35.61,64.46,35.61,64.46Z"
        fill="red" stroke="#000" stroke-miterlimit="10" stroke-width="1.5" opacity="0.14" />
    <path
        d="M36.64,61.42S64.22,77.39,67.19,81s-3.63,41.44-3.63,41.44l8.94,1.7a229.53,229.53,0,0,0-25.66-4.37C35.4,118.72,35,123.34,35,123.34L11.24,101.76,35,123.34c-1.52-3.07,22.62-3.26,28.59-.89,3.88,1.53,7.23.51,11.26,2.63s29.67,12.5,44.29,12.71,37.94-5.72,42.6-7.84,25.23-19.07,27.13-19.07,12.75-3.26,12.75-3.26l-17,5.68c0-5.3-5.08-40.57-5.08-40.57L67.19,81"
        fill="red" stroke="#000" stroke-miterlimit="10" stroke-width="1.5" opacity="0.14" />
    <path
        d="M116.93,102.43a4.21,4.21,0,0,0,4.19,2.55c3.22-.13,17.39.19,18.84-1.74s4.14-4.83,2.63-7.25-6.49-11.92-8.91-13-8.21-3.54-13.53.81c0,0-.16,4.67-1.61,5.8s-3.54.16-3.38,2.74S116.93,102.43,116.93,102.43Z"
        stroke="#c4c4c4" stroke-miterlimit="10" stroke-width="1.5" opacity="0.14" />
</svg>