<?xml version="1.0" encoding="utf-8"?>
<!-- Generator: Adobe Illustrator 25.4.1, SVG Export Plug-In . SVG Version: 6.00 Build 0)  -->
<svg version="1.1" id="eggvg" xmlns="http://www.w3.org/2000/svg" xmlns:xlink="http://www.w3.org/1999/xlink" x="0px" y="0px"
	 viewBox="0 0 35 35" enable-background="new 0 0 35 35" xml:space="preserve">
<circle fill="#F37321" cx="17.5" cy="17.5" r="17.5"/>
<g>
	<path fill="#FFFFFF" stroke="#000000" stroke-width="0.1981" stroke-miterlimit="1.6201" enable-background="new    " d="M7.9,11.9
		c0-0.1,0.1-0.3,0.1-0.4c0.2-0.3,0.5-0.5,0.8-0.5c0.9-0.1,11.8-0.6,11.8-0.6l6.3,2.3c0,0,1.3,0.7,1.4,1.3s0.4,2,0.4,2
		s0.8-0.1,0.8,0.1v0.7c0,0,0.8,0.1,0.8,0.4c-0.1,0.3-0.5,0.5-0.8,0.6c-0.3,0.1-0.4,0.4-0.4,0.7c0,0.3-0.5,0.4-0.7,0.4
		c0,0-0.4,1.5-1.2,2c0,0,0.1,1-0.3,1.3c-0.4,0.3-1.8,0.7-3.2,0.3c0,0-0.8,0-0.8-0.3c-0.1-0.3,0.1-0.2-0.1-0.4s-0.6-0.1-1,0
		c-0.3,0.1-0.6,0.1-0.9,0.1c-0.1,0.3-0.3,0.6-0.5,0.9c-0.5,0.5-1.1,0.8-1.8,0.8c-0.6,0-1.2-0.1-1.7-0.2c0,0-0.5,0.2-0.6-0.2
		c-0.2-0.3-0.3-0.6-0.4-0.9c0,0-1.9,0-2.1,0.3s0,0.6-0.3,1s-1.2,1-2.2,1S9,24.3,8.9,23.8c-0.1-0.5-0.2-1.2-0.3-1.3
		c-0.1-0.1,0-0.2-0.4-0.3c-0.4-0.1-1.2-0.2-1.3-0.6c-0.1-0.3-0.1-1-0.2-1.3c-0.1-0.2-1.5-1.8-1.3-2.7c0,0-0.7-0.4-0.7-0.8
		c0-0.3,0.1-1.3,0.6-0.7c0,0,0.6-2.8,1.1-3.3S7.9,11.9,7.9,11.9z"/>
	
		<path opacity="0.74" fill="#FFFFFF" stroke="#000000" stroke-width="0.1981" stroke-miterlimit="1.6201" enable-background="new    " d="
		M8.1,11.5c0,0,3.6,2.1,4,2.6c0.4,0.5-0.5,5.5-0.5,5.5l1.2,0.2c-1.1-0.3-2.2-0.4-3.4-0.6c-1.5-0.1-1.6,0.5-1.6,0.5l-3.1-2.9l3.1,2.9
		c-0.2-0.4,3-0.4,3.8-0.1c0.5,0.2,1,0.1,1.5,0.3s3.9,1.7,5.8,1.7s5-0.8,5.6-1c0.6-0.3,3.3-2.5,3.6-2.5s1.7-0.4,1.7-0.4l-2.2,0.8
		c0-0.7-0.7-5.4-0.7-5.4l-14.8,1.1"/>
	<path opacity="0.74" stroke="#C4C4C4" stroke-width="0.1981" stroke-miterlimit="1.6201" enable-background="new    " d="M18.7,17
		c0.1,0.2,0.3,0.4,0.6,0.3c0.4,0,2.3,0,2.5-0.2s0.5-0.6,0.3-1c-0.2-0.3-0.9-1.6-1.2-1.7c-0.3-0.1-1.1-0.5-1.8,0.1c0,0,0,0.6-0.2,0.8
		c-0.2,0.1-0.5,0-0.4,0.4C18.5,16,18.7,17,18.7,17z"/>
</g>
</svg>
